<svg xmlns="http://www.w3.org/2000/svg" xmlns:xlink="http://www.w3.org/1999/xlink" width="512" zoomAndPan="magnify" viewBox="0 0 384 383.999986" height="512" preserveAspectRatio="xMidYMid meet" version="1.0"><defs><filter x="0%" y="0%" width="100%" height="100%" id="2f369a999e"><feColorMatrix values="0 0 0 0 1 0 0 0 0 1 0 0 0 0 1 0 0 0 1 0" color-interpolation-filters="sRGB"/></filter><g/><clipPath id="cef7b5acd6"><rect x="0" width="214" y="0" height="214"/></clipPath><clipPath id="cf8ae1df8b"><path d="M 109 109 L 275 109 L 275 275 L 109 275 Z M 109 109 " clip-rule="nonzero"/></clipPath><clipPath id="8c27ff3651"><path d="M 97.15625 125.097656 L 259 97.09375 L 287.003906 258.941406 L 125.160156 286.945312 Z M 97.15625 125.097656 " clip-rule="nonzero"/></clipPath><clipPath id="57258cb632"><path d="M 97.15625 125.097656 L 261.121094 96.726562 L 289.488281 260.691406 L 125.527344 289.0625 Z M 97.15625 125.097656 " clip-rule="nonzero"/></clipPath><clipPath id="ea4a091196"><path d="M 178.003906 111.109375 C 133.351562 118.835938 103.417969 161.292969 111.144531 205.945312 C 118.871094 250.597656 161.328125 280.53125 205.980469 272.804688 C 250.628906 265.078125 280.5625 222.621094 272.835938 177.96875 C 265.113281 133.316406 222.652344 103.382812 178.003906 111.109375 Z M 178.003906 111.109375 " clip-rule="nonzero"/></clipPath><clipPath id="3d2b2e662d"><path d="M 121 121 L 263 121 L 263 263 L 121 263 Z M 121 121 " clip-rule="nonzero"/></clipPath><clipPath id="79914af2cb"><path d="M 114.082031 130.601562 L 253.351562 114.046875 L 269.90625 253.316406 L 130.636719 269.871094 Z M 114.082031 130.601562 " clip-rule="nonzero"/></clipPath><clipPath id="67853c2ae4"><path d="M 114.082031 130.601562 L 255.304688 113.8125 L 272.089844 255.035156 L 130.867188 271.824219 Z M 114.082031 130.601562 " clip-rule="nonzero"/></clipPath><clipPath id="0b10336b37"><path d="M 183.714844 122.324219 C 145.257812 126.894531 117.789062 161.777344 122.359375 200.234375 C 126.929688 238.695312 161.8125 266.164062 200.269531 261.59375 C 238.726562 257.023438 266.199219 222.140625 261.625 183.679688 C 257.054688 145.222656 222.171875 117.753906 183.714844 122.324219 Z M 183.714844 122.324219 " clip-rule="nonzero"/></clipPath><mask id="ee705fd557"><g filter="url(#2f369a999e)"><rect x="-38.4" width="460.8" fill="#000000" y="-38.399999" height="460.799983" fill-opacity="0.33"/></g></mask><clipPath id="30c1033be7"><path d="M 0.398438 1 L 84 1 L 84 110 L 0.398438 110 Z M 0.398438 1 " clip-rule="nonzero"/></clipPath><clipPath id="f1f8d2c730"><rect x="0" width="99" y="0" height="146"/></clipPath></defs><rect x="-38.4" width="460.8" fill="#ffffff" y="-38.399999" height="460.799983" fill-opacity="1"/><rect x="-38.4" width="460.8" fill="#216869" y="-38.399999" height="460.799983" fill-opacity="1"/><g transform="matrix(1, 0, 0, 1, 85, 85)"><g clip-path="url(#cef7b5acd6)"><g fill="#f4f4f4" fill-opacity="1"><g transform="translate(69.020258, 170.120404)"><g><path d="M -0.703125 -0.453125 L -3.21875 4.34375 L -3.703125 4.015625 L -1.90625 0.546875 L -4.359375 2.625 L -4.578125 2.484375 L -3.703125 -0.609375 L -6.109375 2.46875 L -6.59375 2.15625 L -3.265625 -2.109375 L -2.765625 -1.78125 L -3.65625 1.28125 L -1.203125 -0.78125 Z M -0.703125 -0.453125 "/></g></g></g><g fill="#f4f4f4" fill-opacity="1"><g transform="translate(63.194134, 166.231621)"><g><path d="M -0.84375 -0.671875 L -0.390625 -0.3125 L -3.734375 3.921875 L -4.1875 3.5625 L -2.765625 1.765625 L -4.796875 0.171875 L -6.21875 1.96875 L -6.65625 1.625 L -3.3125 -2.609375 L -2.875 -2.265625 L -4.4375 -0.28125 L -2.40625 1.3125 Z M -0.84375 -0.671875 "/></g></g></g><g fill="#f4f4f4" fill-opacity="1"><g transform="translate(57.764935, 161.80549)"><g><path d="M -2.140625 0.078125 L -3.40625 -1.140625 L -4.6875 1.453125 Z M -1.59375 -0.203125 L -0.703125 -0.6875 L -0.265625 -0.265625 L -5.359375 2.46875 L -5.671875 2.15625 L -3.140625 -3.015625 L -2.703125 -2.59375 L -3.140625 -1.6875 Z M -1.59375 -0.203125 "/></g></g></g><g fill="#f4f4f4" fill-opacity="1"><g transform="translate(52.782097, 156.882291)"><g><path d="M -6.828125 0.328125 L -6.390625 -0.046875 L -5.375 1.125 L -1.734375 -2.015625 L -1.359375 -1.578125 L -5 1.5625 L -3.96875 2.765625 L -4.40625 3.140625 Z M -6.828125 0.328125 "/></g></g></g><g fill="#f4f4f4" fill-opacity="1"><g transform="translate(48.290908, 151.506812)"><g/></g></g><g fill="#f4f4f4" fill-opacity="1"><g transform="translate(44.332237, 145.727924)"><g><path d="M -1.171875 -2.234375 L -1.109375 -2.125 C -1.054688 -2.019531 -1.007812 -1.910156 -0.96875 -1.796875 C -0.925781 -1.691406 -0.894531 -1.566406 -0.875 -1.421875 C -0.851562 -1.285156 -0.851562 -1.148438 -0.875 -1.015625 C -0.894531 -0.878906 -0.941406 -0.726562 -1.015625 -0.5625 C -1.085938 -0.40625 -1.1875 -0.25 -1.3125 -0.09375 C -1.4375 0.0625 -1.601562 0.222656 -1.8125 0.390625 C -2.03125 0.566406 -2.28125 0.734375 -2.5625 0.890625 L -2.796875 1.03125 C -3.554688 1.457031 -4.191406 1.632812 -4.703125 1.5625 C -5.222656 1.488281 -5.632812 1.1875 -5.9375 0.65625 L -6 0.546875 C -6.445312 -0.222656 -6.375 -0.925781 -5.78125 -1.5625 L -5.359375 -1.1875 C -5.546875 -0.976562 -5.660156 -0.757812 -5.703125 -0.53125 C -5.742188 -0.300781 -5.675781 -0.0390625 -5.5 0.25 L -5.4375 0.359375 C -5.332031 0.546875 -5.210938 0.691406 -5.078125 0.796875 C -4.941406 0.898438 -4.78125 0.960938 -4.59375 0.984375 C -4.414062 1.015625 -4.195312 0.988281 -3.9375 0.90625 C -3.675781 0.832031 -3.390625 0.707031 -3.078125 0.53125 L -2.84375 0.390625 C -1.582031 -0.335938 -1.171875 -1.082031 -1.609375 -1.84375 L -1.671875 -1.953125 C -1.828125 -2.210938 -2.003906 -2.378906 -2.203125 -2.453125 C -2.410156 -2.523438 -2.65625 -2.535156 -2.9375 -2.484375 L -3.046875 -3.078125 C -2.628906 -3.140625 -2.265625 -3.101562 -1.953125 -2.96875 C -1.640625 -2.832031 -1.378906 -2.585938 -1.171875 -2.234375 Z M -1.171875 -2.234375 "/></g></g></g><g fill="#f4f4f4" fill-opacity="1"><g transform="translate(40.942077, 139.598203)"><g><path d="M -4.40625 -2.625 L -4.171875 -2.734375 C -2.492188 -3.492188 -1.410156 -3.320312 -0.921875 -2.21875 L -0.890625 -2.171875 C -0.796875 -1.960938 -0.734375 -1.765625 -0.703125 -1.578125 C -0.679688 -1.390625 -0.703125 -1.191406 -0.765625 -0.984375 C -0.835938 -0.773438 -0.945312 -0.578125 -1.09375 -0.390625 C -1.25 -0.210938 -1.457031 -0.0351562 -1.71875 0.140625 C -1.976562 0.316406 -2.285156 0.488281 -2.640625 0.65625 L -2.875 0.765625 C -3.125 0.867188 -3.351562 0.953125 -3.5625 1.015625 C -3.78125 1.085938 -4.015625 1.132812 -4.265625 1.15625 C -4.515625 1.1875 -4.734375 1.171875 -4.921875 1.109375 C -5.117188 1.054688 -5.3125 0.945312 -5.5 0.78125 C -5.6875 0.625 -5.835938 0.410156 -5.953125 0.140625 L -6 0.078125 C -6.082031 -0.109375 -6.132812 -0.289062 -6.15625 -0.46875 C -6.1875 -0.65625 -6.1875 -0.820312 -6.15625 -0.96875 C -6.125 -1.125 -6.066406 -1.273438 -5.984375 -1.421875 C -5.898438 -1.566406 -5.804688 -1.691406 -5.703125 -1.796875 C -5.609375 -1.910156 -5.488281 -2.019531 -5.34375 -2.125 C -5.195312 -2.226562 -5.046875 -2.316406 -4.890625 -2.390625 C -4.742188 -2.472656 -4.582031 -2.550781 -4.40625 -2.625 Z M -5.46875 -0.15625 L -5.421875 -0.09375 C -5.347656 0.09375 -5.25 0.238281 -5.125 0.34375 C -5.007812 0.457031 -4.863281 0.53125 -4.6875 0.5625 C -4.507812 0.601562 -4.285156 0.59375 -4.015625 0.53125 C -3.753906 0.476562 -3.453125 0.378906 -3.109375 0.234375 L -2.875 0.125 C -2.382812 -0.09375 -2.015625 -0.316406 -1.765625 -0.546875 C -1.515625 -0.773438 -1.363281 -1 -1.3125 -1.21875 C -1.257812 -1.445312 -1.289062 -1.6875 -1.40625 -1.9375 L -1.4375 -1.984375 C -1.507812 -2.171875 -1.613281 -2.3125 -1.75 -2.40625 C -1.882812 -2.507812 -2.050781 -2.578125 -2.25 -2.609375 C -2.445312 -2.648438 -2.6875 -2.632812 -2.96875 -2.5625 C -3.257812 -2.5 -3.585938 -2.382812 -3.953125 -2.21875 L -4.1875 -2.109375 C -4.539062 -1.953125 -4.820312 -1.796875 -5.03125 -1.640625 C -5.238281 -1.484375 -5.382812 -1.320312 -5.46875 -1.15625 C -5.550781 -1 -5.59375 -0.835938 -5.59375 -0.671875 C -5.59375 -0.515625 -5.550781 -0.34375 -5.46875 -0.15625 Z M -5.46875 -0.15625 "/></g></g></g><g fill="#f4f4f4" fill-opacity="1"><g transform="translate(38.151268, 133.173419)"><g><path d="M -0.109375 -0.3125 L -5.359375 0.96875 L -5.546875 0.40625 L -2.96875 -1.5 L -6.171875 -1.390625 L -6.359375 -1.953125 L -1.421875 -4.15625 L -1.234375 -3.609375 L -4.828125 -2 L -1.578125 -2.09375 L -1.484375 -1.84375 L -4.109375 0.0625 L -0.296875 -0.859375 Z M -0.109375 -0.3125 "/></g></g></g><g fill="#f4f4f4" fill-opacity="1"><g transform="translate(35.985192, 126.511982)"><g><path d="M -2.90625 -0.40625 L -0.8125 -0.90625 L -1.546875 -3.96875 L -0.984375 -4.109375 L -0.109375 -0.484375 L -5.359375 0.765625 L -6.234375 -2.859375 L -5.671875 -2.984375 L -4.9375 0.078125 L -3.46875 -0.28125 L -4.078125 -2.84375 L -3.515625 -2.96875 Z M -2.90625 -0.40625 "/></g></g></g><g fill="#f4f4f4" fill-opacity="1"><g transform="translate(34.463562, 119.674492)"><g><path d="M -0.8125 -2.234375 L -0.8125 -2.34375 C -0.863281 -2.675781 -0.992188 -2.945312 -1.203125 -3.15625 C -1.421875 -3.375 -1.640625 -3.46875 -1.859375 -3.4375 L -1.96875 -3.421875 C -2.164062 -3.390625 -2.328125 -3.316406 -2.453125 -3.203125 C -2.585938 -3.085938 -2.679688 -2.898438 -2.734375 -2.640625 L -3.015625 -1.109375 C -3.054688 -0.953125 -3.117188 -0.8125 -3.203125 -0.6875 C -3.296875 -0.5625 -3.394531 -0.46875 -3.5 -0.40625 C -3.613281 -0.34375 -3.710938 -0.296875 -3.796875 -0.265625 C -3.890625 -0.242188 -3.972656 -0.226562 -4.046875 -0.21875 L -4.15625 -0.203125 C -4.3125 -0.179688 -4.472656 -0.191406 -4.640625 -0.234375 C -4.816406 -0.273438 -4.976562 -0.347656 -5.125 -0.453125 C -5.28125 -0.566406 -5.414062 -0.71875 -5.53125 -0.90625 C -5.65625 -1.101562 -5.734375 -1.328125 -5.765625 -1.578125 L -5.765625 -1.609375 C -5.890625 -2.492188 -5.6875 -3.097656 -5.15625 -3.421875 L -4.859375 -2.9375 C -5.171875 -2.738281 -5.28125 -2.320312 -5.1875 -1.6875 L -5.1875 -1.65625 C -5.164062 -1.476562 -5.113281 -1.328125 -5.03125 -1.203125 C -4.957031 -1.078125 -4.867188 -0.976562 -4.765625 -0.90625 C -4.671875 -0.84375 -4.578125 -0.800781 -4.484375 -0.78125 C -4.390625 -0.757812 -4.304688 -0.753906 -4.234375 -0.765625 L -4.125 -0.78125 C -4.039062 -0.789062 -3.9375 -0.84375 -3.8125 -0.9375 C -3.6875 -1.03125 -3.613281 -1.125 -3.59375 -1.21875 L -3.28125 -2.75 C -3.257812 -2.863281 -3.226562 -2.96875 -3.1875 -3.0625 C -3.15625 -3.164062 -3.109375 -3.269531 -3.046875 -3.375 C -2.984375 -3.476562 -2.90625 -3.566406 -2.8125 -3.640625 C -2.726562 -3.710938 -2.617188 -3.78125 -2.484375 -3.84375 C -2.347656 -3.90625 -2.203125 -3.945312 -2.046875 -3.96875 L -1.9375 -3.984375 C -1.75 -4.003906 -1.5625 -3.984375 -1.375 -3.921875 C -1.195312 -3.867188 -1.03125 -3.769531 -0.875 -3.625 C -0.71875 -3.488281 -0.582031 -3.3125 -0.46875 -3.09375 C -0.351562 -2.882812 -0.273438 -2.660156 -0.234375 -2.421875 L -0.234375 -2.3125 C -0.191406 -2.0625 -0.195312 -1.8125 -0.25 -1.5625 C -0.300781 -1.320312 -0.382812 -1.113281 -0.5 -0.9375 C -0.613281 -0.769531 -0.75 -0.628906 -0.90625 -0.515625 C -1.0625 -0.398438 -1.234375 -0.332031 -1.421875 -0.3125 L -1.5 -0.859375 C -1.28125 -0.890625 -1.097656 -1.035156 -0.953125 -1.296875 C -0.804688 -1.566406 -0.757812 -1.878906 -0.8125 -2.234375 Z M -0.8125 -2.234375 "/></g></g></g><g fill="#f4f4f4" fill-opacity="1"><g transform="translate(33.600216, 112.723154)"><g/></g></g><g fill="#f4f4f4" fill-opacity="1"><g transform="translate(33.403, 105.721163)"><g><path d="M 0.0625 -1.078125 L 0.03125 -0.5 L -5.359375 -0.78125 L -5.34375 -1.28125 L -1.015625 -3.71875 L -5.203125 -3.9375 L -5.171875 -4.5 L 0.21875 -4.21875 L 0.1875 -3.71875 L -4.125 -1.296875 Z M 0.0625 -1.078125 "/></g></g></g><g fill="#f4f4f4" fill-opacity="1"><g transform="translate(33.873696, 98.732256)"><g><path d="M -2.546875 -1.46875 L -0.421875 -1.140625 L 0.046875 -4.25 L 0.625 -4.171875 L 0.078125 -0.5 L -5.25 -1.296875 L -4.703125 -4.96875 L -4.140625 -4.875 L -4.609375 -1.765625 L -3.125 -1.546875 L -2.734375 -4.140625 L -2.15625 -4.0625 Z M -2.546875 -1.46875 "/></g></g></g><g fill="#f4f4f4" fill-opacity="1"><g transform="translate(35.00805, 91.819952)"><g><path d="M -2.578125 -3.09375 L -4.359375 -4.828125 L -4.203125 -5.484375 L -1.953125 -3.265625 L 1.03125 -4.1875 L 0.875 -3.53125 L -1.484375 -2.828125 L 0.265625 -1.0625 L 0.09375 -0.40625 L -2.125 -2.609375 L -5.140625 -1.703125 L -4.96875 -2.359375 Z M -2.578125 -3.09375 "/></g></g></g><g fill="#f4f4f4" fill-opacity="1"><g transform="translate(36.795723, 85.047156)"><g><path d="M -3.671875 -5.765625 L -3.140625 -5.578125 L -3.671875 -4.09375 L 0.875 -2.5 L 0.6875 -1.953125 L -3.859375 -3.546875 L -4.375 -2.0625 L -4.90625 -2.25 Z M -3.671875 -5.765625 "/></g></g></g><g fill="#f4f4f4" fill-opacity="1"><g transform="translate(39.220462, 78.475439)"><g/></g></g><g fill="#f4f4f4" fill-opacity="1"><g transform="translate(42.260218, 72.164628)"><g><path d="M 0.046875 -1.234375 L 1.625 -3.9375 L 2.125 -3.640625 L 0.25 -0.4375 L -4.40625 -3.15625 L -4.109375 -3.65625 Z M 0.046875 -1.234375 "/></g></g></g><g fill="#f4f4f4" fill-opacity="1"><g transform="translate(45.887336, 66.172069)"><g><path d="M 0.15625 -1.21875 L 2 -3.765625 L 2.46875 -3.421875 L 0.296875 -0.40625 L -4.078125 -3.5625 L -3.75 -4.03125 Z M 0.15625 -1.21875 "/></g></g></g><g fill="#f4f4f4" fill-opacity="1"><g transform="translate(50.068825, 60.552303)"><g><path d="M 1.734375 -1.828125 L 1.65625 -1.734375 C 1.582031 -1.648438 1.5 -1.570312 1.40625 -1.5 C 1.3125 -1.425781 1.203125 -1.351562 1.078125 -1.28125 C 0.953125 -1.21875 0.820312 -1.175781 0.6875 -1.15625 C 0.550781 -1.132812 0.394531 -1.128906 0.21875 -1.140625 C 0.0390625 -1.160156 -0.140625 -1.203125 -0.328125 -1.265625 C -0.523438 -1.335938 -0.738281 -1.445312 -0.96875 -1.59375 C -1.195312 -1.738281 -1.4375 -1.921875 -1.6875 -2.140625 L -1.875 -2.3125 C -2.539062 -2.882812 -2.914062 -3.425781 -3 -3.9375 C -3.09375 -4.457031 -2.941406 -4.945312 -2.546875 -5.40625 L -2.46875 -5.5 C -1.875 -6.175781 -1.179688 -6.335938 -0.390625 -5.984375 L -0.625 -5.4375 C -0.882812 -5.550781 -1.125 -5.59375 -1.34375 -5.5625 C -1.570312 -5.53125 -1.800781 -5.382812 -2.03125 -5.125 L -2.109375 -5.03125 C -2.242188 -4.875 -2.335938 -4.710938 -2.390625 -4.546875 C -2.441406 -4.378906 -2.453125 -4.207031 -2.421875 -4.03125 C -2.390625 -3.851562 -2.296875 -3.65625 -2.140625 -3.4375 C -1.992188 -3.21875 -1.78125 -2.988281 -1.5 -2.75 L -1.3125 -2.578125 C -0.207031 -1.609375 0.632812 -1.453125 1.21875 -2.109375 L 1.296875 -2.203125 C 1.492188 -2.429688 1.59375 -2.65625 1.59375 -2.875 C 1.601562 -3.101562 1.539062 -3.335938 1.40625 -3.578125 L 1.921875 -3.875 C 2.109375 -3.507812 2.191406 -3.15625 2.171875 -2.8125 C 2.148438 -2.46875 2.003906 -2.140625 1.734375 -1.828125 Z M 1.734375 -1.828125 "/></g></g></g><g fill="#f4f4f4" fill-opacity="1"><g transform="translate(54.766656, 55.356437)"><g/></g></g><g fill="#f4f4f4" fill-opacity="1"><g transform="translate(59.938082, 50.631728)"><g><path d="M 1.515625 -4.46875 L 1.875 -4.015625 L -0.625 -2.078125 L -0.984375 -2.53125 Z M 1.515625 -4.46875 "/></g></g></g><g fill="#f4f4f4" fill-opacity="1"><g transform="translate(65.536089, 46.421155)"><g/></g></g><g fill="#f4f4f4" fill-opacity="1"><g transform="translate(71.509749, 42.763017)"><g><path d="M 1.09375 -6.59375 L 1.359375 -6.078125 L 0.203125 -5.5 L 2.109375 -1.71875 L 3.265625 -2.296875 L 3.53125 -1.78125 L 0.6875 -0.34375 L 0.421875 -0.859375 L 1.59375 -1.453125 L -0.3125 -5.234375 L -1.484375 -4.640625 L -1.75 -5.15625 Z M 1.09375 -6.59375 "/></g></g></g><g fill="#f4f4f4" fill-opacity="1"><g transform="translate(77.804718, 39.690578)"><g><path d="M 1 -0.390625 L 0.46875 -0.1875 L -1.5 -5.203125 L -1.03125 -5.375 L 2.96875 -2.46875 L 1.4375 -6.359375 L 1.953125 -6.5625 L 3.921875 -1.546875 L 3.46875 -1.359375 L -0.53125 -4.28125 Z M 1 -0.390625 "/></g></g></g><g fill="#f4f4f4" fill-opacity="1"><g transform="translate(84.363753, 37.23179)"><g><path d="M 1.03125 -0.296875 L 0.484375 -0.140625 L -1 -5.328125 L -0.515625 -5.46875 L 3.1875 -2.15625 L 2.03125 -6.1875 L 2.578125 -6.34375 L 4.0625 -1.15625 L 3.578125 -1.015625 L -0.125 -4.328125 Z M 1.03125 -0.296875 "/></g></g></g><g fill="#f4f4f4" fill-opacity="1"><g transform="translate(91.127204, 35.40902)"><g><path d="M 3.609375 -3.65625 L 3.65625 -3.390625 C 3.988281 -1.578125 3.5625 -0.5625 2.375 -0.34375 L 2.3125 -0.328125 C 2.09375 -0.285156 1.882812 -0.28125 1.6875 -0.3125 C 1.5 -0.34375 1.316406 -0.410156 1.140625 -0.515625 C 0.960938 -0.617188 0.800781 -0.769531 0.65625 -0.96875 C 0.519531 -1.164062 0.394531 -1.410156 0.28125 -1.703125 C 0.164062 -2.003906 0.0703125 -2.34375 0 -2.71875 L -0.046875 -2.984375 C -0.0976562 -3.242188 -0.128906 -3.488281 -0.140625 -3.71875 C -0.160156 -3.945312 -0.148438 -4.179688 -0.109375 -4.421875 C -0.0664062 -4.671875 0 -4.878906 0.09375 -5.046875 C 0.195312 -5.222656 0.347656 -5.378906 0.546875 -5.515625 C 0.753906 -5.660156 1.003906 -5.757812 1.296875 -5.8125 L 1.359375 -5.828125 C 1.566406 -5.867188 1.765625 -5.878906 1.953125 -5.859375 C 2.140625 -5.835938 2.300781 -5.796875 2.4375 -5.734375 C 2.570312 -5.671875 2.695312 -5.582031 2.8125 -5.46875 C 2.925781 -5.363281 3.023438 -5.242188 3.109375 -5.109375 C 3.191406 -4.984375 3.269531 -4.835938 3.34375 -4.671875 C 3.414062 -4.503906 3.46875 -4.335938 3.5 -4.171875 C 3.53125 -4.015625 3.566406 -3.84375 3.609375 -3.65625 Z M 1.46875 -5.265625 L 1.40625 -5.25 C 1.207031 -5.21875 1.035156 -5.15625 0.890625 -5.0625 C 0.753906 -4.96875 0.644531 -4.835938 0.5625 -4.671875 C 0.488281 -4.515625 0.445312 -4.300781 0.4375 -4.03125 C 0.425781 -3.769531 0.457031 -3.457031 0.53125 -3.09375 L 0.578125 -2.828125 C 0.671875 -2.304688 0.800781 -1.890625 0.96875 -1.578125 C 1.132812 -1.273438 1.316406 -1.070312 1.515625 -0.96875 C 1.710938 -0.875 1.941406 -0.847656 2.203125 -0.890625 L 2.265625 -0.90625 C 2.460938 -0.945312 2.628906 -1.019531 2.765625 -1.125 C 2.898438 -1.226562 3.003906 -1.375 3.078125 -1.5625 C 3.160156 -1.75 3.203125 -1.988281 3.203125 -2.28125 C 3.210938 -2.570312 3.179688 -2.910156 3.109375 -3.296875 L 3.0625 -3.5625 C 2.988281 -3.9375 2.898438 -4.242188 2.796875 -4.484375 C 2.691406 -4.722656 2.570312 -4.90625 2.4375 -5.03125 C 2.3125 -5.15625 2.171875 -5.234375 2.015625 -5.265625 C 1.859375 -5.304688 1.675781 -5.304688 1.46875 -5.265625 Z M 1.46875 -5.265625 "/></g></g></g><g fill="#f4f4f4" fill-opacity="1"><g transform="translate(98.033515, 34.238833)"><g><path d="M 2.109375 -0.09375 L -0.109375 -5.40625 L 0.5 -5.453125 L 2.28125 -1.171875 L 3.296875 -5.703125 L 3.90625 -5.765625 L 2.640625 -0.140625 Z M 2.109375 -0.09375 "/></g></g></g><g fill="#f4f4f4" fill-opacity="1"><g transform="translate(105.019922, 33.731891)"><g><path d="M 1.5 -1.515625 L 3.265625 -1.5 L 2.40625 -4.265625 Z M 1.296875 -0.9375 L 0.984375 0 L 0.375 0 L 2.203125 -5.46875 L 2.640625 -5.46875 L 4.359375 0.03125 L 3.75 0.03125 L 3.4375 -0.921875 Z M 1.296875 -0.9375 "/></g></g></g><g fill="#f4f4f4" fill-opacity="1"><g transform="translate(112.022821, 33.892809)"><g><path d="M 4.75 -4.921875 L 4.703125 -4.34375 L 3.140625 -4.515625 L 2.640625 0.265625 L 2.0625 0.21875 L 2.5625 -4.5625 L 1 -4.734375 L 1.046875 -5.3125 Z M 4.75 -4.921875 "/></g></g></g><g fill="#f4f4f4" fill-opacity="1"><g transform="translate(118.978543, 34.720091)"><g><path d="M 4.9375 -4.5 L 4.828125 -3.9375 L 3.5625 -4.203125 L 2.71875 -0.046875 L 3.984375 0.21875 L 3.875 0.78125 L 0.75 0.15625 L 0.859375 -0.40625 L 2.140625 -0.15625 L 2.984375 -4.3125 L 1.703125 -4.5625 L 1.8125 -5.125 Z M 4.9375 -4.5 "/></g></g></g><g fill="#f4f4f4" fill-opacity="1"><g transform="translate(125.823848, 36.206253)"><g><path d="M 4.875 -1.59375 L 4.8125 -1.34375 C 4.269531 0.425781 3.421875 1.140625 2.265625 0.796875 L 2.21875 0.765625 C 2 0.703125 1.8125 0.613281 1.65625 0.5 C 1.5 0.382812 1.363281 0.234375 1.25 0.046875 C 1.144531 -0.128906 1.070312 -0.332031 1.03125 -0.5625 C 0.988281 -0.800781 0.988281 -1.078125 1.03125 -1.390625 C 1.070312 -1.703125 1.148438 -2.046875 1.265625 -2.421875 L 1.328125 -2.671875 C 1.410156 -2.929688 1.492188 -3.160156 1.578125 -3.359375 C 1.660156 -3.566406 1.773438 -3.769531 1.921875 -3.96875 C 2.078125 -4.175781 2.238281 -4.332031 2.40625 -4.4375 C 2.582031 -4.550781 2.789062 -4.625 3.03125 -4.65625 C 3.28125 -4.6875 3.546875 -4.660156 3.828125 -4.578125 L 3.890625 -4.546875 C 4.097656 -4.492188 4.273438 -4.414062 4.421875 -4.3125 C 4.578125 -4.207031 4.703125 -4.09375 4.796875 -3.96875 C 4.890625 -3.851562 4.960938 -3.71875 5.015625 -3.5625 C 5.066406 -3.414062 5.097656 -3.265625 5.109375 -3.109375 C 5.128906 -2.953125 5.128906 -2.785156 5.109375 -2.609375 C 5.097656 -2.429688 5.070312 -2.257812 5.03125 -2.09375 C 4.988281 -1.9375 4.9375 -1.769531 4.875 -1.59375 Z M 3.71875 -4 L 3.65625 -4.03125 C 3.457031 -4.082031 3.273438 -4.097656 3.109375 -4.078125 C 2.953125 -4.066406 2.800781 -4.003906 2.65625 -3.890625 C 2.507812 -3.785156 2.367188 -3.613281 2.234375 -3.375 C 2.109375 -3.144531 1.988281 -2.851562 1.875 -2.5 L 1.8125 -2.25 C 1.65625 -1.738281 1.578125 -1.3125 1.578125 -0.96875 C 1.585938 -0.625 1.660156 -0.359375 1.796875 -0.171875 C 1.929688 0.00390625 2.128906 0.128906 2.390625 0.203125 L 2.4375 0.234375 C 2.632812 0.285156 2.8125 0.296875 2.96875 0.265625 C 3.125 0.234375 3.28125 0.15625 3.4375 0.03125 C 3.601562 -0.09375 3.753906 -0.28125 3.890625 -0.53125 C 4.035156 -0.789062 4.164062 -1.113281 4.28125 -1.5 L 4.34375 -1.75 C 4.457031 -2.113281 4.519531 -2.425781 4.53125 -2.6875 C 4.550781 -2.945312 4.53125 -3.164062 4.46875 -3.34375 C 4.40625 -3.519531 4.316406 -3.660156 4.203125 -3.765625 C 4.085938 -3.867188 3.925781 -3.945312 3.71875 -4 Z M 3.71875 -4 "/></g></g></g><g fill="#f4f4f4" fill-opacity="1"><g transform="translate(132.496415, 38.337743)"><g><path d="M 1 0.40625 L 0.46875 0.1875 L 2.515625 -4.796875 L 2.96875 -4.609375 L 3.84375 0.28125 L 5.4375 -3.59375 L 5.953125 -3.390625 L 3.90625 1.59375 L 3.4375 1.40625 L 2.59375 -3.46875 Z M 1 0.40625 "/></g></g></g><g fill="#f4f4f4" fill-opacity="1"><g transform="translate(138.935598, 41.095194)"><g/></g></g><g fill="#f4f4f4" fill-opacity="1"><g transform="translate(145.082814, 44.45352)"><g><path d="M 6.484375 -2.203125 L 6.171875 -1.71875 L 4.859375 -2.578125 L 2.21875 1.453125 L 1.734375 1.140625 L 4.375 -2.890625 L 3.0625 -3.75 L 3.375 -4.234375 Z M 6.484375 -2.203125 "/></g></g></g><g fill="#f4f4f4" fill-opacity="1"><g transform="translate(150.882147, 48.382176)"><g><path d="M 0.84375 0.671875 L 0.390625 0.3125 L 3.765625 -3.890625 L 4.21875 -3.53125 L 2.78125 -1.75 L 4.796875 -0.140625 L 6.234375 -1.921875 L 6.671875 -1.5625 L 3.296875 2.640625 L 2.859375 2.28125 L 4.4375 0.3125 L 2.421875 -1.296875 Z M 0.84375 0.671875 "/></g></g></g><g fill="#f4f4f4" fill-opacity="1"><g transform="translate(156.280862, 52.845415)"><g><path d="M 2.484375 -1.015625 L 0.765625 0.75 L 0.359375 0.34375 L 4.109375 -3.515625 L 5.484375 -2.171875 C 5.640625 -2.015625 5.773438 -1.867188 5.890625 -1.734375 C 6.003906 -1.597656 6.09375 -1.453125 6.15625 -1.296875 C 6.226562 -1.148438 6.265625 -1.003906 6.265625 -0.859375 C 6.273438 -0.722656 6.25 -0.582031 6.1875 -0.4375 C 6.125 -0.289062 6.023438 -0.144531 5.890625 0 L 5.640625 0.265625 C 5.128906 0.785156 4.515625 0.769531 3.796875 0.21875 L 3.21875 3.125 L 2.71875 2.640625 L 3.296875 -0.234375 Z M 3.859375 -0.5 C 4.035156 -0.332031 4.191406 -0.203125 4.328125 -0.109375 C 4.472656 -0.015625 4.597656 0.0351562 4.703125 0.046875 C 4.804688 0.0664062 4.898438 0.0625 4.984375 0.03125 C 5.078125 0 5.160156 -0.0507812 5.234375 -0.125 L 5.484375 -0.390625 C 5.546875 -0.453125 5.59375 -0.515625 5.625 -0.578125 C 5.664062 -0.640625 5.6875 -0.707031 5.6875 -0.78125 C 5.695312 -0.863281 5.679688 -0.945312 5.640625 -1.03125 C 5.597656 -1.125 5.535156 -1.234375 5.453125 -1.359375 C 5.367188 -1.484375 5.25 -1.617188 5.09375 -1.765625 L 4.125 -2.703125 L 2.890625 -1.4375 Z M 3.859375 -0.5 "/></g></g></g><g fill="#f4f4f4" fill-opacity="1"><g transform="translate(161.229824, 57.802667)"><g><path d="M 4.96875 1.3125 L 4.765625 1.484375 C 3.359375 2.679688 2.265625 2.816406 1.484375 1.890625 L 1.4375 1.84375 C 1.289062 1.675781 1.179688 1.5 1.109375 1.3125 C 1.046875 1.132812 1.015625 0.941406 1.015625 0.734375 C 1.023438 0.523438 1.078125 0.3125 1.171875 0.09375 C 1.265625 -0.125 1.410156 -0.359375 1.609375 -0.609375 C 1.816406 -0.859375 2.066406 -1.109375 2.359375 -1.359375 L 2.5625 -1.53125 C 2.769531 -1.707031 2.96875 -1.851562 3.15625 -1.96875 C 3.34375 -2.09375 3.550781 -2.203125 3.78125 -2.296875 C 4.007812 -2.390625 4.226562 -2.4375 4.4375 -2.4375 C 4.644531 -2.4375 4.851562 -2.378906 5.0625 -2.265625 C 5.28125 -2.160156 5.488281 -1.992188 5.6875 -1.765625 L 5.734375 -1.71875 C 5.867188 -1.550781 5.972656 -1.382812 6.046875 -1.21875 C 6.128906 -1.0625 6.175781 -0.90625 6.1875 -0.75 C 6.195312 -0.59375 6.179688 -0.4375 6.140625 -0.28125 C 6.109375 -0.132812 6.054688 0.00390625 5.984375 0.140625 C 5.910156 0.285156 5.816406 0.425781 5.703125 0.5625 C 5.597656 0.707031 5.484375 0.835938 5.359375 0.953125 C 5.242188 1.078125 5.113281 1.195312 4.96875 1.3125 Z M 5.296875 -1.34375 L 5.25 -1.390625 C 5.113281 -1.546875 4.972656 -1.660156 4.828125 -1.734375 C 4.679688 -1.816406 4.519531 -1.847656 4.34375 -1.828125 C 4.164062 -1.816406 3.957031 -1.75 3.71875 -1.625 C 3.488281 -1.5 3.226562 -1.316406 2.9375 -1.078125 L 2.734375 -0.90625 C 2.328125 -0.5625 2.03125 -0.242188 1.84375 0.046875 C 1.664062 0.335938 1.582031 0.59375 1.59375 0.8125 C 1.613281 1.039062 1.710938 1.257812 1.890625 1.46875 L 1.9375 1.515625 C 2.0625 1.671875 2.195312 1.773438 2.34375 1.828125 C 2.5 1.890625 2.675781 1.910156 2.875 1.890625 C 3.070312 1.867188 3.300781 1.785156 3.5625 1.640625 C 3.820312 1.503906 4.101562 1.304688 4.40625 1.046875 L 4.609375 0.875 C 4.898438 0.625 5.125 0.394531 5.28125 0.1875 C 5.4375 -0.0078125 5.535156 -0.195312 5.578125 -0.375 C 5.617188 -0.5625 5.613281 -0.726562 5.5625 -0.875 C 5.519531 -1.019531 5.429688 -1.175781 5.296875 -1.34375 Z M 5.296875 -1.34375 "/></g></g></g><g fill="#f4f4f4" fill-opacity="1"><g transform="translate(165.684032, 63.208834)"><g><path d="M 1.828125 0.046875 C 1.585938 0.210938 1.453125 0.429688 1.421875 0.703125 C 1.390625 0.984375 1.488281 1.285156 1.71875 1.609375 L 1.78125 1.703125 C 2 2.023438 2.25 2.222656 2.53125 2.296875 C 2.8125 2.367188 3.070312 2.320312 3.3125 2.15625 L 6.515625 -0.078125 L 6.84375 0.375 L 3.640625 2.609375 C 3.273438 2.859375 2.875 2.9375 2.4375 2.84375 C 2.007812 2.757812 1.632812 2.488281 1.3125 2.03125 L 1.25 1.9375 C 0.925781 1.476562 0.796875 1.03125 0.859375 0.59375 C 0.921875 0.15625 1.132812 -0.1875 1.5 -0.4375 L 4.703125 -2.671875 L 5.03125 -2.1875 Z M 1.828125 0.046875 "/></g></g></g><g fill="#f4f4f4" fill-opacity="1"><g transform="translate(169.602992, 69.014721)"><g><path d="M 2.890625 3.21875 C 2.546875 3.269531 2.21875 3.203125 1.90625 3.015625 C 1.601562 2.835938 1.351562 2.578125 1.15625 2.234375 L 1.109375 2.15625 C 1.046875 2.050781 0.992188 1.941406 0.953125 1.828125 C 0.910156 1.710938 0.878906 1.585938 0.859375 1.453125 C 0.847656 1.316406 0.851562 1.175781 0.875 1.03125 C 0.90625 0.894531 0.957031 0.742188 1.03125 0.578125 C 1.101562 0.421875 1.203125 0.265625 1.328125 0.109375 C 1.460938 -0.046875 1.632812 -0.207031 1.84375 -0.375 C 2.050781 -0.550781 2.296875 -0.71875 2.578125 -0.875 L 2.8125 -1 C 3.175781 -1.207031 3.515625 -1.351562 3.828125 -1.4375 C 4.148438 -1.519531 4.414062 -1.546875 4.625 -1.515625 C 4.84375 -1.492188 5.046875 -1.429688 5.234375 -1.328125 C 5.421875 -1.222656 5.566406 -1.113281 5.671875 -1 C 5.785156 -0.882812 5.882812 -0.753906 5.96875 -0.609375 L 6.015625 -0.515625 C 6.453125 0.265625 6.367188 0.972656 5.765625 1.609375 L 5.34375 1.21875 C 5.539062 1.007812 5.65625 0.789062 5.6875 0.5625 C 5.726562 0.34375 5.664062 0.0820312 5.5 -0.21875 L 5.453125 -0.3125 C 5.347656 -0.488281 5.226562 -0.628906 5.09375 -0.734375 C 4.957031 -0.835938 4.796875 -0.90625 4.609375 -0.9375 C 4.421875 -0.96875 4.195312 -0.945312 3.9375 -0.875 C 3.675781 -0.800781 3.394531 -0.675781 3.09375 -0.5 L 2.859375 -0.375 C 2.660156 -0.257812 2.476562 -0.144531 2.3125 -0.03125 C 2.15625 0.0820312 2.003906 0.210938 1.859375 0.359375 C 1.722656 0.515625 1.617188 0.671875 1.546875 0.828125 C 1.472656 0.984375 1.4375 1.148438 1.4375 1.328125 C 1.445312 1.515625 1.503906 1.695312 1.609375 1.875 L 1.65625 1.953125 C 1.789062 2.203125 1.957031 2.382812 2.15625 2.5 C 2.351562 2.613281 2.535156 2.671875 2.703125 2.671875 L 3.609375 2.171875 L 3.09375 1.25 L 3.59375 0.953125 L 4.390625 2.359375 Z M 2.890625 3.21875 "/></g></g></g><g fill="#f4f4f4" fill-opacity="1"><g transform="translate(172.951051, 75.167535)"><g><path d="M 0.4375 0.984375 L 0.203125 0.453125 L 5.125 -1.734375 L 5.359375 -1.203125 L 3.28125 -0.28125 L 4.328125 2.078125 L 6.40625 1.15625 L 6.640625 1.671875 L 1.71875 3.859375 L 1.484375 3.34375 L 3.796875 2.3125 L 2.75 -0.046875 Z M 0.4375 0.984375 "/></g></g></g><g fill="#f4f4f4" fill-opacity="1"><g transform="translate(175.697729, 81.611323)"><g/></g></g><g fill="#f4f4f4" fill-opacity="1"><g transform="translate(177.818067, 88.287457)"><g><path d="M 6.203125 2.890625 L 5.640625 3.03125 L 5.28125 1.515625 L 0.59375 2.59375 L 0.46875 2.03125 L 5.15625 0.953125 L 4.796875 -0.59375 L 5.359375 -0.734375 Z M 6.203125 2.890625 "/></g></g></g><g fill="#f4f4f4" fill-opacity="1"><g transform="translate(179.292807, 95.135215)"><g><path d="M 2.59375 0.734375 L 0.140625 1.0625 L 0.0625 0.5 L 5.40625 -0.203125 L 5.65625 1.703125 C 5.6875 1.910156 5.703125 2.101562 5.703125 2.28125 C 5.703125 2.457031 5.679688 2.628906 5.640625 2.796875 C 5.609375 2.960938 5.546875 3.097656 5.453125 3.203125 C 5.367188 3.316406 5.257812 3.410156 5.125 3.484375 C 4.988281 3.566406 4.820312 3.617188 4.625 3.640625 L 4.265625 3.6875 C 3.546875 3.789062 3.070312 3.398438 2.84375 2.515625 L 0.59375 4.4375 L 0.5 3.765625 L 2.75 1.859375 Z M 3.328125 2 C 3.359375 2.226562 3.398438 2.425781 3.453125 2.59375 C 3.515625 2.757812 3.582031 2.878906 3.65625 2.953125 C 3.726562 3.035156 3.804688 3.085938 3.890625 3.109375 C 3.984375 3.140625 4.082031 3.144531 4.1875 3.125 L 4.546875 3.078125 C 4.640625 3.066406 4.71875 3.050781 4.78125 3.03125 C 4.84375 3.007812 4.898438 2.96875 4.953125 2.90625 C 5.003906 2.84375 5.039062 2.765625 5.0625 2.671875 C 5.09375 2.578125 5.109375 2.453125 5.109375 2.296875 C 5.117188 2.140625 5.109375 1.960938 5.078125 1.765625 L 4.90625 0.421875 L 3.15625 0.65625 Z M 3.328125 2 "/></g></g></g><g fill="#f4f4f4" fill-opacity="1"><g transform="translate(180.108485, 102.092322)"><g><path d="M 1.578125 1.421875 L 1.65625 3.1875 L 4.375 2.21875 Z M 1 1.265625 L 0.03125 0.984375 L 0.015625 0.375 L 5.5625 1.953125 L 5.578125 2.390625 L 0.15625 4.359375 L 0.140625 3.75 L 1.078125 3.40625 Z M 1 1.265625 "/></g></g></g><g fill="#f4f4f4" fill-opacity="1"><g transform="translate(180.257643, 109.095475)"><g><path d="M -0.0625 1.078125 L -0.03125 0.5 L 5.34375 0.8125 L 5.3125 1.3125 L 0.984375 3.734375 L 5.15625 3.96875 L 5.125 4.53125 L -0.25 4.21875 L -0.21875 3.71875 L 4.125 1.328125 Z M -0.0625 1.078125 "/></g></g></g><g fill="#f4f4f4" fill-opacity="1"><g transform="translate(179.739037, 116.081008)"><g><path d="M 0.125 2.359375 L 0.109375 2.46875 C 0.0546875 2.8125 0.101562 3.113281 0.25 3.375 C 0.394531 3.632812 0.578125 3.785156 0.796875 3.828125 L 0.90625 3.84375 C 1.101562 3.863281 1.273438 3.835938 1.421875 3.765625 C 1.578125 3.703125 1.71875 3.554688 1.84375 3.328125 L 2.578125 1.9375 C 2.648438 1.800781 2.742188 1.6875 2.859375 1.59375 C 2.984375 1.5 3.109375 1.4375 3.234375 1.40625 C 3.359375 1.375 3.460938 1.351562 3.546875 1.34375 C 3.640625 1.34375 3.722656 1.347656 3.796875 1.359375 L 3.921875 1.375 C 4.078125 1.394531 4.226562 1.453125 4.375 1.546875 C 4.519531 1.648438 4.648438 1.773438 4.765625 1.921875 C 4.890625 2.066406 4.976562 2.25 5.03125 2.46875 C 5.09375 2.6875 5.101562 2.921875 5.0625 3.171875 L 5.0625 3.203125 C 4.914062 4.085938 4.546875 4.613281 3.953125 4.78125 L 3.8125 4.203125 C 4.15625 4.109375 4.378906 3.742188 4.484375 3.109375 L 4.484375 3.078125 C 4.503906 2.898438 4.492188 2.738281 4.453125 2.59375 C 4.421875 2.457031 4.367188 2.34375 4.296875 2.25 C 4.234375 2.164062 4.160156 2.097656 4.078125 2.046875 C 3.992188 1.992188 3.914062 1.960938 3.84375 1.953125 L 3.71875 1.9375 C 3.632812 1.925781 3.519531 1.945312 3.375 2 C 3.226562 2.050781 3.128906 2.117188 3.078125 2.203125 L 2.359375 3.59375 C 2.296875 3.6875 2.234375 3.773438 2.171875 3.859375 C 2.109375 3.941406 2.03125 4.023438 1.9375 4.109375 C 1.851562 4.191406 1.753906 4.253906 1.640625 4.296875 C 1.535156 4.347656 1.410156 4.382812 1.265625 4.40625 C 1.128906 4.425781 0.984375 4.425781 0.828125 4.40625 L 0.71875 4.390625 C 0.53125 4.359375 0.351562 4.285156 0.1875 4.171875 C 0.03125 4.054688 -0.0976562 3.90625 -0.203125 3.71875 C -0.316406 3.539062 -0.394531 3.332031 -0.4375 3.09375 C -0.488281 2.863281 -0.5 2.625 -0.46875 2.375 L -0.453125 2.265625 C -0.410156 2.023438 -0.328125 1.796875 -0.203125 1.578125 C -0.0859375 1.359375 0.046875 1.179688 0.203125 1.046875 C 0.359375 0.910156 0.53125 0.8125 0.71875 0.75 C 0.90625 0.695312 1.09375 0.6875 1.28125 0.71875 L 1.203125 1.265625 C 0.984375 1.222656 0.765625 1.304688 0.546875 1.515625 C 0.328125 1.734375 0.1875 2.015625 0.125 2.359375 Z M 0.125 2.359375 "/></g></g></g><g fill="#f4f4f4" fill-opacity="1"><g transform="translate(178.557311, 122.985366)"><g><path d="M 2.390625 1.71875 L -0.359375 1.03125 L -0.21875 0.46875 L 5.09375 1.8125 L 4.171875 5.421875 L 3.609375 5.28125 L 4.390625 2.234375 L 2.9375 1.859375 L 2.28125 4.40625 L 1.734375 4.265625 Z M 2.390625 1.71875 "/></g></g></g><g fill="#f4f4f4" fill-opacity="1"><g transform="translate(176.723246, 129.745758)"><g><path d="M 1.34375 4.96875 L 1.09375 4.875 C -0.644531 4.25 -1.3125 3.367188 -0.90625 2.234375 L -0.890625 2.171875 C -0.804688 1.953125 -0.703125 1.769531 -0.578125 1.625 C -0.453125 1.476562 -0.296875 1.351562 -0.109375 1.25 C 0.0664062 1.144531 0.269531 1.078125 0.5 1.046875 C 0.738281 1.023438 1.015625 1.039062 1.328125 1.09375 C 1.640625 1.144531 1.976562 1.238281 2.34375 1.375 L 2.59375 1.46875 C 2.84375 1.550781 3.066406 1.644531 3.265625 1.75 C 3.472656 1.851562 3.671875 1.984375 3.859375 2.140625 C 4.054688 2.296875 4.207031 2.457031 4.3125 2.625 C 4.414062 2.800781 4.472656 3.015625 4.484375 3.265625 C 4.503906 3.515625 4.46875 3.773438 4.375 4.046875 L 4.34375 4.125 C 4.269531 4.320312 4.179688 4.492188 4.078125 4.640625 C 3.972656 4.785156 3.859375 4.898438 3.734375 4.984375 C 3.609375 5.078125 3.460938 5.144531 3.296875 5.1875 C 3.140625 5.226562 2.988281 5.253906 2.84375 5.265625 C 2.695312 5.273438 2.53125 5.265625 2.34375 5.234375 C 2.164062 5.203125 2 5.164062 1.84375 5.125 C 1.6875 5.082031 1.519531 5.03125 1.34375 4.96875 Z M 3.8125 3.921875 L 3.84375 3.84375 C 3.90625 3.65625 3.929688 3.476562 3.921875 3.3125 C 3.910156 3.15625 3.851562 3 3.75 2.84375 C 3.65625 2.695312 3.492188 2.550781 3.265625 2.40625 C 3.046875 2.269531 2.757812 2.140625 2.40625 2.015625 L 2.15625 1.921875 C 1.65625 1.742188 1.234375 1.644531 0.890625 1.625 C 0.546875 1.613281 0.273438 1.671875 0.078125 1.796875 C -0.109375 1.921875 -0.25 2.109375 -0.34375 2.359375 L -0.359375 2.421875 C -0.421875 2.609375 -0.441406 2.785156 -0.421875 2.953125 C -0.398438 3.117188 -0.328125 3.28125 -0.203125 3.4375 C -0.0859375 3.601562 0.09375 3.757812 0.34375 3.90625 C 0.59375 4.0625 0.90625 4.207031 1.28125 4.34375 L 1.53125 4.4375 C 1.894531 4.5625 2.207031 4.640625 2.46875 4.671875 C 2.726562 4.710938 2.941406 4.703125 3.109375 4.640625 C 3.285156 4.585938 3.425781 4.503906 3.53125 4.390625 C 3.644531 4.273438 3.738281 4.117188 3.8125 3.921875 Z M 3.8125 3.921875 "/></g></g></g><g fill="#f4f4f4" fill-opacity="1"><g transform="translate(174.253516, 136.300672)"><g><path d="M 1.78125 2.015625 L -0.453125 0.96875 L -0.21875 0.453125 L 4.65625 2.75 L 3.84375 4.484375 C 3.75 4.679688 3.65625 4.851562 3.5625 5 C 3.46875 5.15625 3.359375 5.289062 3.234375 5.40625 C 3.117188 5.519531 2.992188 5.597656 2.859375 5.640625 C 2.722656 5.691406 2.570312 5.710938 2.40625 5.703125 C 2.25 5.691406 2.082031 5.644531 1.90625 5.5625 L 1.578125 5.40625 C 0.921875 5.09375 0.738281 4.507812 1.03125 3.65625 L -1.90625 4.0625 L -1.625 3.4375 L 1.296875 3.046875 Z M 1.71875 3.484375 C 1.613281 3.703125 1.539062 3.894531 1.5 4.0625 C 1.46875 4.226562 1.457031 4.363281 1.46875 4.46875 C 1.488281 4.570312 1.523438 4.660156 1.578125 4.734375 C 1.640625 4.804688 1.71875 4.863281 1.8125 4.90625 L 2.140625 5.0625 C 2.222656 5.09375 2.300781 5.113281 2.375 5.125 C 2.445312 5.144531 2.519531 5.144531 2.59375 5.125 C 2.675781 5.101562 2.75 5.0625 2.8125 5 C 2.882812 4.9375 2.960938 4.835938 3.046875 4.703125 C 3.140625 4.578125 3.234375 4.421875 3.328125 4.234375 L 3.90625 3.015625 L 2.296875 2.265625 Z M 1.71875 3.484375 "/></g></g></g><g fill="#f4f4f4" fill-opacity="1"><g transform="translate(171.170557, 142.590513)"><g><path d="M -0.171875 0.28125 L 4.21875 3.46875 L 3.921875 3.96875 L 0.78125 3.234375 L 2.953125 5.59375 L 2.640625 6.109375 L -2.234375 3.78125 L -1.953125 3.28125 L 1.59375 4.96875 L -0.578125 2.578125 L -0.4375 2.34375 L 2.734375 3.09375 L -0.46875 0.78125 Z M -0.171875 0.28125 "/></g></g></g><g fill="#f4f4f4" fill-opacity="1"><g transform="translate(167.50244, 148.558051)"><g><path d="M 0.359375 2.109375 L -0.6875 3.53125 L 2.046875 4.453125 Z M 0 1.609375 L -0.578125 0.796875 L -0.21875 0.296875 L 3.15625 4.96875 L 2.890625 5.328125 L -2.578125 3.515625 L -2.21875 3.03125 L -1.265625 3.34375 Z M 0 1.609375 "/></g></g></g><g fill="#f4f4f4" fill-opacity="1"><g transform="translate(163.282521, 154.148985)"><g><path d="M 1.234375 6.734375 L 0.796875 6.359375 L 1.828125 5.1875 L -1.765625 1.984375 L -1.375 1.546875 L 2.21875 4.75 L 3.265625 3.578125 L 3.703125 3.953125 Z M 1.234375 6.734375 "/></g></g></g><g fill="#f4f4f4" fill-opacity="1"><g transform="translate(158.549168, 159.312516)"><g><path d="M 0.78125 6.640625 L 0.390625 6.21875 L 1.328125 5.34375 L -1.5625 2.234375 L -2.5 3.109375 L -2.890625 2.6875 L -0.5625 0.515625 L -0.171875 0.9375 L -1.125 1.84375 L 1.765625 4.953125 L 2.71875 4.046875 L 3.109375 4.46875 Z M 0.78125 6.640625 "/></g></g></g><g fill="#f4f4f4" fill-opacity="1"><g transform="translate(153.345464, 164.001685)"><g><path d="M -1.5625 4.890625 L -1.71875 4.6875 C -2.84375 3.21875 -2.925781 2.117188 -1.96875 1.390625 L -1.921875 1.34375 C -1.742188 1.207031 -1.5625 1.109375 -1.375 1.046875 C -1.1875 0.992188 -0.988281 0.972656 -0.78125 0.984375 C -0.570312 0.992188 -0.359375 1.050781 -0.140625 1.15625 C 0.0664062 1.269531 0.285156 1.429688 0.515625 1.640625 C 0.753906 1.847656 0.992188 2.109375 1.234375 2.421875 L 1.390625 2.625 C 1.554688 2.84375 1.695312 3.046875 1.8125 3.234375 C 1.925781 3.429688 2.019531 3.648438 2.09375 3.890625 C 2.175781 4.128906 2.210938 4.347656 2.203125 4.546875 C 2.191406 4.753906 2.125 4.96875 2 5.1875 C 1.882812 5.40625 1.710938 5.601562 1.484375 5.78125 L 1.421875 5.828125 C 1.253906 5.953125 1.082031 6.046875 0.90625 6.109375 C 0.738281 6.171875 0.578125 6.203125 0.421875 6.203125 C 0.273438 6.210938 0.128906 6.191406 -0.015625 6.140625 C -0.171875 6.097656 -0.316406 6.039062 -0.453125 5.96875 C -0.585938 5.894531 -0.722656 5.796875 -0.859375 5.671875 C -0.992188 5.554688 -1.113281 5.4375 -1.21875 5.3125 C -1.332031 5.1875 -1.445312 5.046875 -1.5625 4.890625 Z M 1.078125 5.359375 L 1.140625 5.3125 C 1.296875 5.1875 1.414062 5.050781 1.5 4.90625 C 1.582031 4.769531 1.617188 4.613281 1.609375 4.4375 C 1.609375 4.257812 1.550781 4.046875 1.4375 3.796875 C 1.320312 3.554688 1.148438 3.285156 0.921875 2.984375 L 0.765625 2.78125 C 0.441406 2.351562 0.140625 2.039062 -0.140625 1.84375 C -0.421875 1.644531 -0.671875 1.546875 -0.890625 1.546875 C -1.117188 1.554688 -1.34375 1.644531 -1.5625 1.8125 L -1.609375 1.859375 C -1.765625 1.972656 -1.878906 2.101562 -1.953125 2.25 C -2.023438 2.40625 -2.054688 2.582031 -2.046875 2.78125 C -2.035156 2.988281 -1.960938 3.222656 -1.828125 3.484375 C -1.703125 3.742188 -1.519531 4.03125 -1.28125 4.34375 L -1.125 4.546875 C -0.882812 4.859375 -0.660156 5.097656 -0.453125 5.265625 C -0.253906 5.441406 -0.0664062 5.550781 0.109375 5.59375 C 0.285156 5.644531 0.445312 5.648438 0.59375 5.609375 C 0.75 5.566406 0.910156 5.484375 1.078125 5.359375 Z M 1.078125 5.359375 "/></g></g></g><g fill="#f4f4f4" fill-opacity="1"><g transform="translate(147.718723, 168.173742)"><g><path d="M -0.921875 0.578125 L -0.421875 0.265625 L 2.4375 4.84375 L 2.015625 5.109375 L -2.453125 2.953125 L -0.234375 6.515625 L -0.71875 6.8125 L -3.578125 2.234375 L -3.15625 1.96875 L 1.296875 4.125 Z M -0.921875 0.578125 "/></g></g></g><g fill="#f4f4f4" fill-opacity="1"><g transform="translate(141.720109, 171.790876)"><g/></g></g><g fill="#f4f4f4" fill-opacity="1"><g transform="translate(135.404238, 174.820066)"><g><path d="M -2.734375 3.828125 L -2.953125 3.28125 L -0.015625 2.15625 L 0.203125 2.703125 Z M -2.734375 3.828125 "/></g></g></g><g fill="#f4f4f4" fill-opacity="1"><g transform="translate(128.828472, 177.233815)"><g/></g></g><g fill="#f4f4f4" fill-opacity="1"><g transform="translate(122.052711, 179.010181)"><g><path d="M -1.3125 5.8125 L -1.421875 5.828125 C -1.984375 5.929688 -2.441406 5.882812 -2.796875 5.6875 C -3.148438 5.5 -3.363281 5.191406 -3.4375 4.765625 L -3.46875 4.609375 C -3.488281 4.492188 -3.46875 4.332031 -3.40625 4.125 C -3.34375 3.925781 -3.242188 3.738281 -3.109375 3.5625 L -1.40625 1.625 C -1.21875 1.40625 -1.097656 1.117188 -1.046875 0.765625 L -4.0625 1.296875 L -4.15625 0.734375 L -0.59375 0.109375 L -0.453125 0.859375 C -0.535156 1.316406 -0.707031 1.691406 -0.96875 1.984375 L -2.671875 3.953125 C -2.734375 4.023438 -2.78125 4.101562 -2.8125 4.1875 C -2.851562 4.28125 -2.875 4.351562 -2.875 4.40625 C -2.882812 4.457031 -2.894531 4.492188 -2.90625 4.515625 L -2.875 4.671875 C -2.78125 5.203125 -2.332031 5.394531 -1.53125 5.25 L -1.421875 5.234375 C -1.160156 5.191406 -0.953125 5.128906 -0.796875 5.046875 C -0.648438 4.960938 -0.546875 4.882812 -0.484375 4.8125 C -0.421875 4.738281 -0.363281 4.640625 -0.3125 4.515625 L 0.234375 4.71875 C 0.109375 5.03125 -0.0664062 5.269531 -0.296875 5.4375 C -0.523438 5.601562 -0.863281 5.726562 -1.3125 5.8125 Z M -1.3125 5.8125 "/></g></g></g><g fill="#f4f4f4" fill-opacity="1"><g transform="translate(115.138527, 180.132976)"><g><path d="M -1.234375 1.203125 C -1.484375 0.816406 -1.84375 0.640625 -2.3125 0.671875 C -2.519531 0.691406 -2.695312 0.738281 -2.84375 0.8125 C -3 0.894531 -3.125 1 -3.21875 1.125 C -3.3125 1.257812 -3.378906 1.429688 -3.421875 1.640625 C -3.460938 1.847656 -3.484375 2.066406 -3.484375 2.296875 C -3.492188 2.523438 -3.484375 2.789062 -3.453125 3.09375 C -3.421875 3.488281 -3.375 3.8125 -3.3125 4.0625 Z M -1.96875 5.078125 C -1.789062 5.066406 -1.632812 5.035156 -1.5 4.984375 C -1.363281 4.929688 -1.242188 4.851562 -1.140625 4.75 C -1.046875 4.644531 -0.96875 4.507812 -0.90625 4.34375 C -0.84375 4.175781 -0.800781 3.96875 -0.78125 3.71875 C -0.769531 3.476562 -0.773438 3.195312 -0.796875 2.875 C -0.835938 2.46875 -0.894531 2.113281 -0.96875 1.8125 L -3.046875 4.671875 C -2.804688 4.984375 -2.445312 5.117188 -1.96875 5.078125 Z M -4.03125 3.140625 C -4.0625 2.796875 -4.070312 2.488281 -4.0625 2.21875 C -4.050781 1.945312 -4.015625 1.675781 -3.953125 1.40625 C -3.890625 1.144531 -3.796875 0.925781 -3.671875 0.75 C -3.546875 0.570312 -3.367188 0.425781 -3.140625 0.3125 C -2.921875 0.195312 -2.660156 0.125 -2.359375 0.09375 C -1.722656 0.0390625 -1.226562 0.242188 -0.875 0.703125 L -0.40625 0.046875 L -0.046875 0.546875 L -0.5625 1.25 C -0.394531 1.65625 -0.28125 2.179688 -0.21875 2.828125 C -0.195312 3.128906 -0.1875 3.398438 -0.1875 3.640625 C -0.195312 3.878906 -0.238281 4.117188 -0.3125 4.359375 C -0.382812 4.609375 -0.476562 4.816406 -0.59375 4.984375 C -0.71875 5.160156 -0.894531 5.3125 -1.125 5.4375 C -1.351562 5.5625 -1.617188 5.632812 -1.921875 5.65625 C -2.566406 5.707031 -3.0625 5.539062 -3.40625 5.15625 L -3.875 5.78125 L -4.203125 5.265625 L -3.734375 4.609375 C -3.890625 4.242188 -3.988281 3.753906 -4.03125 3.140625 Z M -4.03125 3.140625 "/></g></g></g><g fill="#f4f4f4" fill-opacity="1"><g transform="translate(108.148816, 180.591988)"><g><path d="M -2.390625 5.453125 L -2.5 5.453125 C -3.070312 5.441406 -3.507812 5.3125 -3.8125 5.0625 C -4.125 4.8125 -4.28125 4.46875 -4.28125 4.03125 L -4.28125 3.875 C -4.269531 3.757812 -4.21875 3.601562 -4.125 3.40625 C -4.03125 3.21875 -3.898438 3.054688 -3.734375 2.921875 L -1.6875 1.3125 C -1.457031 1.144531 -1.285156 0.894531 -1.171875 0.5625 L -4.234375 0.515625 L -4.21875 -0.0625 L -0.609375 -0.015625 L -0.625 0.75 C -0.78125 1.1875 -1.015625 1.523438 -1.328125 1.765625 L -3.359375 3.375 C -3.429688 3.4375 -3.492188 3.507812 -3.546875 3.59375 C -3.609375 3.675781 -3.648438 3.738281 -3.671875 3.78125 C -3.691406 3.832031 -3.707031 3.867188 -3.71875 3.890625 L -3.71875 4.046875 C -3.71875 4.585938 -3.304688 4.863281 -2.484375 4.875 L -2.375 4.875 C -2.113281 4.875 -1.898438 4.847656 -1.734375 4.796875 C -1.566406 4.753906 -1.445312 4.703125 -1.375 4.640625 C -1.300781 4.578125 -1.226562 4.488281 -1.15625 4.375 L -0.671875 4.671875 C -0.847656 4.953125 -1.066406 5.148438 -1.328125 5.265625 C -1.585938 5.390625 -1.941406 5.453125 -2.390625 5.453125 Z M -2.390625 5.453125 "/></g></g></g><g fill="#f4f4f4" fill-opacity="1"><g transform="translate(101.147188, 180.383076)"><g><path d="M -2.890625 5.203125 L -3 5.1875 C -3.570312 5.125 -4 4.953125 -4.28125 4.671875 C -4.5625 4.390625 -4.679688 4.03125 -4.640625 3.59375 L -4.625 3.4375 C -4.601562 3.332031 -4.535156 3.1875 -4.421875 3 C -4.304688 2.820312 -4.164062 2.671875 -4 2.546875 L -1.796875 1.140625 C -1.554688 1.003906 -1.363281 0.773438 -1.21875 0.453125 L -4.25 0.109375 L -4.1875 -0.46875 L -0.609375 -0.0625 L -0.6875 0.703125 C -0.894531 1.109375 -1.15625 1.414062 -1.46875 1.625 L -3.671875 3.046875 C -3.753906 3.097656 -3.828125 3.160156 -3.890625 3.234375 C -3.953125 3.316406 -3.992188 3.375 -4.015625 3.40625 C -4.035156 3.445312 -4.054688 3.476562 -4.078125 3.5 L -4.09375 3.65625 C -4.144531 4.195312 -3.757812 4.515625 -2.9375 4.609375 L -2.828125 4.625 C -2.566406 4.65625 -2.347656 4.648438 -2.171875 4.609375 C -2.003906 4.578125 -1.882812 4.535156 -1.8125 4.484375 C -1.738281 4.429688 -1.660156 4.347656 -1.578125 4.234375 L -1.125 4.59375 C -1.320312 4.851562 -1.550781 5.03125 -1.8125 5.125 C -2.082031 5.21875 -2.441406 5.242188 -2.890625 5.203125 Z M -2.890625 5.203125 "/></g></g></g><g fill="#f4f4f4" fill-opacity="1"><g transform="translate(94.197295, 179.508098)"><g/></g></g><g fill="#f4f4f4" fill-opacity="1"><g transform="translate(87.362346, 177.975049)"><g><path d="M -4.53125 1.3125 L -4.359375 0.75 L -1.34375 1.6875 L -1.515625 2.25 Z M -4.53125 1.3125 "/></g></g></g></g></g><g clip-path="url(#cf8ae1df8b)"><g clip-path="url(#8c27ff3651)"><g clip-path="url(#57258cb632)"><g clip-path="url(#ea4a091196)"><path stroke-linecap="butt" transform="matrix(0.739019, -0.127871, 0.127871, 0.739019, 97.156185, 125.098116)" fill="none" stroke-linejoin="miter" d="M 109.398679 0.000201367 C 48.977463 0.000819995 -0.00121917 48.976685 -0.000600542 109.397901 C 0.0000180853 169.819117 48.975883 218.797799 109.397099 218.797181 C 169.813183 218.795674 218.791865 169.81981 218.791247 109.398593 C 218.79576 48.978265 169.814764 -0.00130525 109.398679 0.000201367 Z M 109.398679 0.000201367 " stroke="#e76f51" stroke-width="2" stroke-opacity="1" stroke-miterlimit="4"/></g></g></g></g><g clip-path="url(#3d2b2e662d)"><g clip-path="url(#79914af2cb)"><g clip-path="url(#67853c2ae4)"><g clip-path="url(#0b10336b37)"><path stroke-linecap="butt" transform="matrix(0.744757, -0.0885292, 0.0885292, 0.744757, 114.081509, 130.601166)" fill="none" stroke-linejoin="miter" d="M 93.498045 0.000477048 C 41.861172 -0.000941296 0.00217644 41.86115 0.000758096 93.498023 C -0.00127503 145.140069 41.860816 186.999064 93.49769 187.000483 C 145.134563 187.001901 186.998731 145.140425 186.995592 93.497764 C 186.99701 41.860891 145.134919 0.00189539 93.498045 0.000477048 Z M 93.498045 0.000477048 " stroke="#e76f51" stroke-width="2" stroke-opacity="1" stroke-miterlimit="4"/></g></g></g></g><g mask="url(#ee705fd557)"><g transform="matrix(1, 0, 0, 1, 152, 141)"><g clip-path="url(#f1f8d2c730)"><g clip-path="url(#30c1033be7)"><g fill="#f4f4f4" fill-opacity="1"><g transform="translate(0.586807, 109.033105)"><g><path d="M 38.734375 -108 C 42.859375 -108 47.175781 -107.707031 51.6875 -107.125 C 56.207031 -106.550781 60.484375 -105.453125 64.515625 -103.828125 C 69.890625 -101.710938 74.179688 -98.585938 77.390625 -94.453125 C 80.609375 -90.328125 82.363281 -85.816406 82.65625 -80.921875 C 82.84375 -76.503906 82.117188 -72.710938 80.484375 -69.546875 C 78.859375 -66.378906 76.65625 -63.570312 73.875 -61.125 C 71.09375 -58.675781 68.019531 -56.394531 64.65625 -54.28125 C 61.289062 -52.175781 57.976562 -50.039062 54.71875 -47.875 C 51.457031 -45.71875 48.550781 -43.367188 46 -40.828125 C 43.457031 -38.285156 41.585938 -35.285156 40.390625 -31.828125 C 39.191406 -28.367188 39.023438 -24.285156 39.890625 -19.578125 L 37.734375 -19.578125 C 35.710938 -25.535156 35.0625 -30.578125 35.78125 -34.703125 C 36.5 -38.828125 38.054688 -42.351562 40.453125 -45.28125 C 42.859375 -48.21875 45.691406 -50.882812 48.953125 -53.28125 C 52.222656 -55.675781 55.441406 -58.097656 58.609375 -60.546875 C 61.773438 -62.992188 64.460938 -65.753906 66.671875 -68.828125 C 68.878906 -71.898438 70.078125 -75.644531 70.265625 -80.0625 C 70.554688 -84.476562 69.550781 -88.601562 67.25 -92.4375 C 64.945312 -96.28125 61.726562 -99.453125 57.59375 -101.953125 C 53.46875 -104.453125 48.71875 -105.75 43.34375 -105.84375 C 37.875 -106.03125 32.570312 -105.234375 27.4375 -103.453125 C 22.300781 -101.679688 18.289062 -98.925781 15.40625 -95.1875 C 13.289062 -92.40625 11.894531 -89.1875 11.21875 -85.53125 C 10.550781 -81.882812 10.941406 -78.046875 12.390625 -74.015625 C 8.359375 -73.921875 5.285156 -74.953125 3.171875 -77.109375 C 1.054688 -79.273438 0 -81.988281 0 -85.25 C 0 -88.03125 0.8125 -90.597656 2.4375 -92.953125 C 4.070312 -95.304688 6.113281 -97.367188 8.5625 -99.140625 C 11.007812 -100.921875 13.390625 -102.335938 15.703125 -103.390625 C 19.347656 -105.023438 23.113281 -106.203125 27 -106.921875 C 30.882812 -107.640625 34.796875 -108 38.734375 -108 Z M 38.734375 -11.953125 C 37.097656 -11.953125 35.703125 -11.375 34.546875 -10.21875 C 33.398438 -9.070312 32.828125 -7.679688 32.828125 -6.046875 C 32.828125 -4.410156 33.398438 -2.992188 34.546875 -1.796875 C 35.703125 -0.597656 37.097656 0 38.734375 0 C 40.367188 0 41.785156 -0.597656 42.984375 -1.796875 C 44.179688 -2.992188 44.78125 -4.410156 44.78125 -6.046875 C 44.78125 -7.679688 44.179688 -9.070312 42.984375 -10.21875 C 41.785156 -11.375 40.367188 -11.953125 38.734375 -11.953125 Z M 38.734375 -11.953125 "/></g></g></g></g></g></g></g><g fill="#e76f51" fill-opacity="1"><g transform="translate(174.043166, 244.775741)"><g><path d="M 9.628906 -11.316406 C 11.625 -10.730469 13.121094 -9.523438 14.113281 -7.703125 C 15.109375 -5.878906 15.3125 -3.972656 14.726562 -1.976562 C 14.144531 0.0078125 12.941406 1.519531 11.121094 2.5625 C 9.277344 3.617188 7.351562 3.847656 5.347656 3.257812 C 3.351562 2.671875 1.839844 1.4375 0.8125 -0.445312 C -0.214844 -2.324219 -0.433594 -4.265625 0.152344 -6.257812 C 0.742188 -8.265625 1.976562 -9.761719 3.863281 -10.738281 C 5.722656 -11.707031 7.648438 -11.898438 9.628906 -11.316406 Z M 8.714844 -8.207031 C 7.566406 -8.546875 6.445312 -8.429688 5.355469 -7.863281 C 4.289062 -7.308594 3.589844 -6.46875 3.257812 -5.347656 C 2.925781 -4.210938 3.058594 -3.09375 3.65625 -1.996094 C 4.253906 -0.898438 5.121094 -0.183594 6.257812 0.152344 C 7.382812 0.480469 8.46875 0.347656 9.511719 -0.25 C 10.578125 -0.859375 11.28125 -1.742188 11.617188 -2.890625 C 11.953125 -4.027344 11.835938 -5.113281 11.269531 -6.148438 C 10.703125 -7.1875 9.851562 -7.875 8.714844 -8.207031 Z M 8.640625 -17.777344 L 29.265625 -105.65625 L 44.019531 -101.320312 L 13.304688 -14.8125 L 8.292969 -16.285156 Z M 11.796875 -17.039062 L 10.21875 -17.410156 L 10.675781 -18.964844 L 12.75 -18.355469 L 12.292969 -16.800781 L 10.765625 -17.34375 L 40.390625 -100.789062 L 41.917969 -100.246094 L 41.460938 -98.695312 L 29.996094 -102.0625 L 30.453125 -103.617188 L 32.027344 -103.246094 Z M 11.796875 -17.039062 "/></g></g></g><g fill="#f4f4f4" fill-opacity="1"><g transform="translate(174.043166, 244.775741)"><g><path d="M 9.171875 -9.765625 C 10.742188 -9.304688 11.914062 -8.359375 12.6875 -6.921875 C 13.46875 -5.492188 13.628906 -3.992188 13.171875 -2.421875 C 12.710938 -0.859375 11.757812 0.332031 10.3125 1.15625 C 8.875 1.976562 7.367188 2.160156 5.796875 1.703125 C 4.234375 1.242188 3.046875 0.269531 2.234375 -1.21875 C 1.421875 -2.707031 1.242188 -4.234375 1.703125 -5.796875 C 2.160156 -7.367188 3.128906 -8.535156 4.609375 -9.296875 C 6.085938 -10.066406 7.609375 -10.222656 9.171875 -9.765625 Z M 10.203125 -17.40625 L 30.453125 -103.609375 L 41.921875 -100.234375 L 12.296875 -16.796875 Z M 10.203125 -17.40625 "/></g></g></g></svg>